<?xml version="1.0" encoding="utf-8"?>
<!-- Generator: Adobe Illustrator 24.1.2, SVG Export Plug-In . SVG Version: 6.00 Build 0)  -->
<svg version="1.1" id="Layer_1" xmlns="http://www.w3.org/2000/svg" xmlns:xlink="http://www.w3.org/1999/xlink" x="0px" y="0px"
	 viewBox="0 0 1000 1000" style="enable-background:new 0 0 1000 1000;" xml:space="preserve">
<style type="text/css">
	.st0{fill:#60AEC5;}
	.st1{fill:#0A3254;}
	.st2{font-family:'ArialRoundedMTBold';}
	.st3{font-size:30.3575px;}
	.st4{letter-spacing:10;}
	.st5{fill:#04375E;}
</style>
<g>
	<g>
		<path class="st0" d="M720.48,608.35c-2.83,8.18-7.21,19.09-14,31.18c-16.46,29.33-36.35,46.57-40.72,50.26
			c-28.67,24.29-59.14,33.28-76.35,36.9c-12.94,1.47-31.09,2.07-52.17-1.91c-16.38-3.09-29.89-8.08-40.08-12.73
			c10.12,2.75,20.95,5.34,32.45,7.64c9.03,1.8,17.75,3.26,26.09,4.45c0.09,0,1.67,0.04,2.55-1.27c0.01-0.01,0.01-0.02,0.02-0.03
			c0.88-1.35-0.15-3.15-1.76-3.21c-2.22-0.09-5.1-0.26-8.44-0.58c-12.46-1.2-42.55-4.48-69.35-25.45
			c-4.15-3.25-9.88-8.22-15.91-15.27c-0.3-0.73-1.56-4.05,0-7c1.91-3.6,7.35-5.37,12.73-3.18c7.3,6.74,17.82,15.06,31.81,22.27
			c16.33,8.41,31.32,12.18,41.99,14l26.38,3.6c0.98,0.13,1.95,0.34,2.89,0.64c5.3,1.67,17.46,4.56,31.82,0.22
			c11.26-3.41,18.94-9.77,23.44-14.48c0.52-0.54-0.19-1.36-0.8-0.92c-4.7,3.35-11.19,7.1-19.46,9.67
			c-9.21,2.87-17.04,3.28-33.09,1.91c-3-0.26-7.72-1.02-17.18-2.55c-4.9-0.79-16.72-2.75-31.18-6.36
			c-5.42-1.36-10.62-2.79-16.54-6.36c-2.53-1.52-4.56-3.06-6.07-4.31c-0.93-0.77-1.34-2.08-0.84-3.18c0.13-0.3,0.32-0.56,0.55-0.78
			c0,0,0.01-0.01,0.01-0.01c0.62-0.58,1.61-0.57,2.25-0.01c0.34,0.3,0.69,0.72,0.92,1.29c0.12,0.31,0.19,0.61,0.22,0.88
			c0.13,1.22,0.97,2.25,2.08,2.76c6.77,3.14,16.11,6.6,27.6,8.44c13.69,2.19,25.26,1.25,33.09,0c5.2-0.93,12.14-2.73,19.72-6.36
			c6.81-3.26,12.09-7.02,15.91-10.18c3.33-3.24,8.57-7.53,15.91-10.82c4.51-2.02,8.68-3.16,12.09-3.82
			c6.92-1.02,19.77-3.9,32.45-13.36c7.57-5.64,12.66-11.83,15.91-16.54c1.63-2.17,3.73-4.58,6.36-7c4.34-3.97,8.67-6.58,12.09-8.27
			c2.4-1.41,4.06-2.83,5.09-3.82c3.16-3.02,4.53-5.86,7.64-6.36C719.39,608.22,720.08,608.29,720.48,608.35z"/>
		<path class="st0" d="M657.49,649.59c1.14,1.6,0.75,3.82-0.86,4.93c-0.14,0.09-0.27,0.19-0.42,0.28
			c-4.32,2.86-8.71,3.61-11.45,3.82c-3.03,0.29-7.01,0.96-11.45,2.55c-4.29,1.53-7.69,3.44-10.18,5.09
			c-5.87,4.19-12.65,8.54-20.36,12.73c-7.55,4.1-14.8,7.4-21.5,10.06c-4.84,1.92-9.95,3.07-15.15,3.29c-0.08,0-0.17,0.01-0.25,0.01
			c-8.52,0.35-16.23-0.25-22.91-1.27c-2.44-0.33-4.99-0.75-7.64-1.27c-4.35-0.86-8.39-1.88-12.08-2.99
			c-0.43-0.13-0.86-0.24-1.29-0.34c-2.3-0.53-4.87-1.3-7.62-2.4c-4.8-1.93-8.62-4.29-11.45-6.36c-0.59-0.91-0.54-2,0-2.55
			c0.69-0.7,2.29-0.62,3.18,0.64c4.71,3.05,12.47,7.27,22.91,9.54c11.09,2.41,20.42,1.58,26.09,0.64c3.71-0.4,8.89-1.36,14.63-3.82
			c6.41-2.74,11.05-6.28,14-8.91c2.67-3.6,7.93-9.65,16.54-14c5.38-2.72,10.36-3.9,14-4.45c13.28-2.21,26.55-4.43,39.83-6.64
			C655.38,647.94,656.71,648.49,657.49,649.59z"/>
		<path class="st0" d="M656.89,647.37c-1.18-0.7-1.3-2.36-0.26-3.25c0.59-0.5,1.3-1,2.13-1.41c2.47-1.22,3.41-0.43,6.36-1.27
			c3.67-1.05,4.03-2.81,8.27-4.45c1.34-0.52,2.57-0.84,3.58-1.03c0.86-0.17,1.71,0.26,2.14,1.02c0,0,0,0.01,0.01,0.01
			c0.06,0.11,0.12,0.22,0.19,0.32c0.54,0.92,0.27,2.1-0.62,2.68c-1.96,1.3-3.52,2.46-4.66,3.36c-1.5,1.18-2.6,2.14-4.45,3.18
			c-1.78,1-3.37,1.57-4.45,1.91c-0.94,0.26-3.12,0.73-5.73,0C658.42,648.16,657.58,647.77,656.89,647.37z"/>
		<path class="st0" d="M642.22,644.62l-7-3.18c-7.57-1.35-23.02-2.97-40.08,3.82c-7.94,3.16-14.07,7.27-18.45,10.82
			c-5.65,5.22-13.64,11.42-24.18,16.54c-5.23,2.54-10.18,4.38-14.63,5.73c4.13,1.34,11.16,3,19.72,1.91
			c14.91-1.91,24.33-10.86,27.36-14c3.65-3.29,9.13-7.47,16.54-10.82c5.94-2.68,11.78-3.98,14-4.45c7.25-1.56,10.52-1.14,17.82-3.18
			C637.2,646.71,640.27,645.48,642.22,644.62z"/>
		<path class="st0" d="M661.95,636.35l-23.22-6.88c-7.38-2.19-15.04-3.3-22.75-3.3h-11.93c-4.41,0.37-7.88,1.23-10.18,1.91
			c-7.68,2.28-13.13,5.92-18.45,9.54c-3.35,2.28-5.96,4.34-7.64,5.73c-2.54,2.21-6.17,5.17-10.82,8.27
			c-8.87,5.93-15.18,10.02-23.54,10.18c-2.78,0.05-7-0.31-12.09-2.55c-0.04,4.72,1.54,7.13,2.55,8.27
			c5.03,5.73,17.95,5.24,31.18-3.18c2.41-1.4,6.2-3.6,10.82-6.36c11.51-6.88,14.33-8.9,19.72-11.45c3.56-1.69,8.91-3.92,15.91-5.73
			c6.61-2.02,12.11-2.82,15.91-3.18c12.86-1.21,19.64,1.38,34.99,0C656.48,637.26,659.81,636.73,661.95,636.35z"/>
		<path class="st0" d="M662.86,625.2l-0.12,0.98c-0.1,0.82,0.3,1.62,1.03,2c1.25,0.66,3.29,1.43,5.81,1.17
			c2.28-0.23,3.98-1.2,4.97-1.93c0.51-0.37,1.07-0.67,1.63-0.94c0.72-0.34,1.69-1.01,2.3-2.22c0.32-0.63,0.46-1.25,0.5-1.82
			c0.11-1.65-1.4-3-3.02-2.64c-0.01,0-0.02,0-0.03,0.01c-2.48,0.55-3.91,2.63-4.6,3.96c-0.46,0.9-1.29,1.57-2.29,1.74
			c-0.04,0.01-0.08,0.01-0.11,0.02c-0.14,0.02-0.28,0.04-0.41,0.05c-0.8,0.07-1.53-0.37-1.95-1.06c-0.05-0.09-0.11-0.18-0.18-0.27
			c-0.01-0.01-0.02-0.03-0.03-0.04C665.33,622.81,663.08,623.46,662.86,625.2z"/>
		<ellipse class="st0" cx="660.99" cy="615.67" rx="3.5" ry="2.86"/>
		<path class="st0" d="M626.32,617.97c0-0.38,0.35-0.67,0.72-0.59c1.14,0.26,3.28,1,4.37,3.06c0.15,0.29,0.27,0.57,0.36,0.85
			c0.27,0.82-0.39,1.64-1.25,1.58c-4.11-0.3-8.49-0.49-13.1-0.52c-4.89-0.02-9.51,0.14-13.84,0.43c-1.96,0.13-3.91,0.44-5.81,0.93
			c-5.23,1.35-9.3,3.01-12.16,4.36c-3.87,1.83-8.36,4.64-17.18,10.18c-2.96,1.86-5.39,3.42-7,4.45c-1.21,0.8-2.75,0.79-3.82,0
			c-0.11-0.08-0.21-0.16-0.3-0.25c-0.86-0.83-0.23-2.29,0.97-2.29l0,0c0.39,0,0.75-0.15,1.02-0.43c2.93-2.95,6.57-6.12,11.03-9.12
			c9.98-6.71,19.8-9.7,26.86-11.12c1.14-0.23,2.29-0.35,3.45-0.37c6.09-0.09,12.55,0.1,19.32,0.67c1.83,0.15,3.63,0.33,5.39,0.53
			c0.52,0.06,0.97-0.35,0.97-0.87V617.97z"/>
		<path class="st1" d="M419.53,670.07c-0.06-0.23-1.18-4.47,1.27-7c2.47-2.55,7.79-2.53,11.45,1.27c7.44,10.26,21,26.22,42.63,39.45
			c25.22,15.43,49.15,19.65,62.35,21c8.72,0.92,17.44,1.84,26.16,2.76l27.29,0.42c2.55,1.17,3.85,3.93,3.18,6.36
			c-0.54,1.97-2.3,3.47-4.45,3.82c-2.97,0.64-5.94,1.27-8.91,1.91c-4.45,0.42-8.91,0.85-13.36,1.27c-8.91,0-17.82,0-26.72,0
			c-6.65-0.4-15.91-1.36-26.72-3.82c-10.49-2.39-31.14-7.3-52.81-22.27C439.06,700.16,426.31,681.86,419.53,670.07z"/>
		<path class="st0" d="M388.35,636.35c1.33,1.39,3.2,3.52,5.09,6.36c2.85,4.28,3.98,7.52,5.21,10.21c1.5,3.28,3.16,5.73,10.06,13.96
			c9.77,11.66,19.55,22.35,24.18,27.36c7.11,7.43,15.75,15.5,26.09,23.54c8.47,6.59,16.65,12.04,24.18,16.54
			c-5.35-1.2-11.12-2.84-17.18-5.09c-0.64-0.24-1.27-0.48-1.9-0.72c-18.05-7.04-34.09-18.41-47.06-32.8
			c-8.49-9.42-15.41-16.44-21.02-21.83c-4.69-4.5-12.1-11.97-16.54-23.54c-1.39-3.61-2.13-6.11-2.55-8.27
			c-0.6-2.73,0.42-5.52,2.55-7C382.07,633.25,385.95,633.69,388.35,636.35z"/>
		<path class="st1" d="M355.27,625.53c1.3,0.48,4.02,1.68,6.36,4.45c1.27,1.5,2.05,3.03,2.55,4.3c0.8,2.08,1.78,4.08,2.91,5.99
			c6.12,10.36,14.11,22.12,24.45,34.25c10.84,12.71,21.67,22.76,31.18,30.54c15.18,12.35,29.48,20.04,40.08,24.81
			c22.58,10.17,42.39,13.43,54.08,15.27c3.72,0.59,8.92,1.03,13.31,1.36c1.34,0.1,1.45,2.04,0.12,2.28
			c-3.15,0.59-6.61,1.11-8.98,1.44c-4.39,0.62-8.13,0.38-10.82,0v-2.55c-8.27,0.19-19.17-0.09-31.81-1.91
			c-6.86-0.99-18.09-2.65-30.54-7c-10.39-3.63-27.07-11.02-44.54-26.72c-12.14-11.57-25.76-26.48-38.81-45.17
			c-8.26-11.84-14.95-23.25-20.36-33.72c-1.28-2.44-0.79-4.02-0.64-4.45C344.86,625.83,349.6,623.98,355.27,625.53z"/>
		<path class="st0" d="M322.8,636.96c-1-1.52-0.6-3.57,0.85-4.65c1.05-0.78,2.47-1.51,4.25-1.68c3.35-0.32,6.69,1.45,8.59,4.53
			c0.22,0.36,0.45,0.73,0.7,1.07c13.66,18.28,27.32,36.56,40.97,54.84c8.46,9.79,16.35,16.84,22.27,21.63
			c5.75,4.66,10.96,8.88,18.45,13.36c3.35,2,8.72,5,15.91,10.18c2.18,1.57,4.57,2.92,5.73,3.82c-1.8,0.67-5.05,1.48-8.27,1.91
			c-5.29,0.7-9.75,0.06-12.73-0.64c-17.71-5.1-40.94-14.08-64.9-30.54c-48.02-32.99-70.79-76.7-80.39-98.92
			c-0.2-0.46,0.14-0.98,0.64-0.98h4.8c0.3,0,0.56,0.19,0.66,0.47c0.87,2.48,2.35,5.55,4.93,8.44c0.12,0.14,0.25,0.28,0.37,0.41
			c0.87,0.93,2.04,1.52,3.31,1.66c3.62,0.4,8.71,1.46,14.13,4.3c4.27,2.24,7.42,4.89,9.54,7c11.75,15.16,24.85,30.74,39.45,46.45
			c5.32,5.72,10.63,11.23,15.91,16.54c0.63,0.75,1.67,1,2.55,0.64c0.16-0.07,0.31-0.15,0.44-0.26c0.95-0.71,0.97-2.14,0.15-2.99
			c-2.6-2.67-6.44-6.77-10.77-12.03c-6-7.29-8.94-11.94-17.82-24.18c-2.29-3.16-5.7-7.82-9.96-13.49c-0.53-0.71-1.28-1.22-2.14-1.48
			c-2.11-0.64-5.45-2.09-7.63-5.39C322.81,636.98,322.81,636.97,322.8,636.96z"/>
		<path class="st1" d="M440.52,740.07c0.48,0.75,1.31,1.93,2.55,3.18c5.63,5.68,13.51,6.42,19.72,7c2.55,0.24,6.28,0.42,10.82,0
			c-3.75-2.04-7.05-3.48-9.54-4.45c-1.49-0.59-8.76-3.39-19.09-5.09C443.13,740.4,441.58,740.2,440.52,740.07z"/>
		<circle class="st0" cx="334.91" cy="619.81" r="7.64"/>
		<ellipse class="st0" cx="416.67" cy="652.89" rx="7.32" ry="7"/>
		
			<ellipse transform="matrix(0.7071 -0.7071 0.7071 0.7071 -335.5432 516.0695)" class="st0" cx="455.18" cy="663.07" rx="5.83" ry="6.76"/>
		<path class="st0" d="M385.17,612.17l3.04,3.04c0.09,0.09,0.21,0.16,0.33,0.19c0.78,0.2,1.57,0.39,2.35,0.59
			c2.78,0.74,4.8,2.75,5.09,5.09c0.15,1.21-0.19,2.25-0.51,2.92c-0.08,0.17-0.22,0.3-0.4,0.37c-0.71,0.25-2.42,0.71-4.18-0.1
			c-2-0.92-3.26-3.1-3.19-5.53c0-0.13-0.02-0.26-0.09-0.37c-0.78-1.37-1.57-2.75-2.35-4.12c-0.06-0.11-0.09-0.23-0.09-0.35V612.17z"
			/>
		<ellipse class="st0" cx="422.71" cy="608.35" rx="4.45" ry="3.18"/>
		<circle class="st0" cx="463.43" cy="637.62" r="4.45"/>
		<circle class="st0" cx="422.07" cy="635.08" r="3.18"/>
		<circle class="st0" cx="469.16" cy="649.71" r="3.82"/>
		<ellipse class="st0" cx="488.88" cy="650.98" rx="4.45" ry="3.82"/>
	</g>
	<g>
		<path class="st1" d="M289.84,506.19c-1.09,2.49-3.94,8.05-10.18,12.09c-2.22,1.43-4.39,2.37-6.28,2.98
			c-2.03,0.66-4.24,0.29-5.96-0.97c-3.6-2.63-8.52-7.13-11.95-14.1c-3.94-8.01-3.9-15.17-3.82-20.36c0.05-3.21,0.39-6.25,0.91-9.08
			c1.92-10.45,7.1-20.03,14.53-27.62c5.14-5.25,11.8-10.98,20.19-16.1c23.7-14.47,48.04-16.02,76.35-17.81
			c12.82-0.81,25.48-0.74,43.26-0.64c12.99,0.08,23.76,0.38,31.17,0.64c-2.35,2.99-4.72,6.38-7,10.18
			c-6.85,11.45-10.29,22.5-12.09,31.17c-4.16,13.18-8.16,29-10.82,47.08c-2.23,15.2-3.1,29.13-3.2,41.4
			c-0.05,6.29,1.18,12.54,3.78,18.27c0.02,0.04,0.04,0.09,0.06,0.13c1.63,3.56,3.43,6.53,5.09,8.91H377
			c0.07-8.53,0.04-15.29,0-19.72c-0.06-7.6-0.17-11.51,0.64-17.18c0.69-4.9,1.75-8.85,2.54-11.45c-6.75-0.87-15.51-1.18-25.45,0.64
			c-3.72,0.68-7.12,1.57-10.18,2.54c0.69-2.32,4.72-14.97,17.81-21.63c9.83-5,19.12-3.75,22.27-3.18
			c2.05-12.72,5.78-28.27,12.72-45.17c4.2-10.21,8.83-19.12,13.36-26.72c-2.84,0.96-6.9,2.54-11.45,5.09
			c-4.98,2.79-11.27,7.16-22.9,20.36c-5.51,6.26-12.44,14.74-19.72,25.45c-6.85,10.96-13.65,22.41-20.36,34.36
			c-2.39,4.27-4.73,8.51-7,12.72c-6.08,11.76-11.92,21.12-16.54,27.99c-4.8,7.14-8.16,11.4-14,14c-5.68,2.53-11.19,2.35-14.63,1.91
			h-34.36c0.42-0.63,0.9-1.48,1.27-2.54c0.54-1.53,0.64-2.89,0.64-3.82h8.27c13.61-1.88,22.98-6.95,27.99-10.18
			c9.9-6.39,16.16-14.27,21-20.36c3.41-4.29,5.94-8.1,7.63-10.82c10.69-16.28,18.7-28.55,22.9-34.99
			c16.08-24.64,20.85-32.09,29.9-41.35c9.93-10.16,19.58-16.92,26.09-21c-11.07,0.17-33.15,1.01-54.08,5.73
			c-7.75,1.75-13.71,3.66-19.72,6.36c-8.37,3.76-14.75,8.1-19.09,11.45c-5.06,3.63-11.62,9.53-16.54,18.45
			c-1.91,3.47-5.29,9.77-5.73,18.45c-0.19,3.87-0.68,13.64,5.09,17.18C286.99,505.91,288.67,506.15,289.84,506.19z"/>
		<path class="st1" d="M486.43,497.29c1.89,0.2,6.95,0.46,12.09-2.54c7.7-4.51,9.32-12.72,9.54-14c0.1-1.54,0.02-3.97-1.27-6.36
			c-2.21-4.08-6.64-5.42-12.09-7c-3.24-0.94-8.26-2.02-14.63-1.91c-2.04-0.2-20.73-1.75-32.45,12.09
			c-5.42,6.39-7.06,13.38-7.63,17.18c-0.12,1.81-0.12,4.52,0.64,7.63c0.45,1.88,1.65,5.85,8.27,14c2.52,3.1,6.08,7.12,10.82,11.45
			c3.88,4.19,7.07,7.87,9.54,10.82c2.73,3.25,4.07,4.99,5.09,7.63c1.35,3.51,1.42,6.75,1.27,8.91c-0.35,1.59-1.47,5.58-5.09,8.91
			c-5.16,4.74-11.48,4.52-12.72,4.45c-1.29-0.17-11-1.59-15.91-10.18c-2.5-4.38-2.64-8.67-2.54-10.82c0.05-1.82,0.36-4.88,1.91-8.27
			c1.39-3.04,3.2-5.13,4.45-6.36c-1.96-0.05-10.38-0.04-17.81,6.36c-6.61,5.7-8.33,12.92-8.79,15.75c0,0.5,0,0.99,0.01,1.48
			c0.39,2.01,1.04,3.67,1.79,5.03c5.46,9.97,19.83,11.56,27.74,11.64c3.56,0.04,7.12,0.23,10.67,0.46
			c13.62,0.88,26.27-4.2,33.48-14.01c5.27-7.16,6.21-14.9,6.36-19.09c-0.02-2.85-0.41-6.64-1.91-10.82
			c-3.55-9.88-10.96-15.23-14-17.18c-2.13-2.53-4.09-4.66-5.73-6.36c-6.87-7.13-10.45-9.17-13.36-14.63c-1.5-2.82-2.2-5.38-2.54-7
			c0.02-0.74,0.23-6.46,5.09-10.18c4.08-3.12,8.61-2.66,9.54-2.54c1.23,0.11,5.76,0.66,9.54,4.45c4.06,4.07,4.4,9.02,4.45,10.18
			c0.05,1.23-0.02,3.03-0.64,5.09C488.78,494.33,487.35,496.24,486.43,497.29z"/>
		<path class="st1" d="M536.69,450.2c2.37,0.16,9.77,0.37,17.18-4.45c7.11-4.63,9.94-11.1,10.82-13.36
			c-2.33,11.45-4.67,22.9-7,34.36h21l-2.54,8.91h-21l-15.54,72.33c-0.51,2.39,1.31,4.65,3.76,4.65h1.59c1.3,0,2.56-0.41,3.61-1.17
			c2.23-1.62,4.73-3.74,7.23-6.46c1.62-1.77,4.01-4.74,5.71-6.6c0.77-0.84,2.17-0.45,2.39,0.67c0.11,0.55,0.05,1.12-0.17,1.63
			c-2.07,4.72-4.24,8.5-6.02,11.3c-2.03,3.2-4.81,7.51-9.54,12.09c-2.76,2.67-4.84,4.69-8.27,6.36c-4.58,2.23-8.87,2.56-11.45,2.54
			c-5.03,0.17-7.84-1.7-8.91-2.54c-4.99-3.92-5.05-11.08-5.09-15.91c-0.03-4.03,0.66-7.33,1.27-9.54
			c5.3-23.12,10.6-46.23,15.91-69.35h-12.72c0.19-1.46,0.4-2.94,0.64-4.45c0.2-1.3,0.41-2.57,0.64-3.82c4.24,0,8.48,0,12.72,0
			L536.69,450.2z"/>
		<path class="st1" d="M574.86,492.2c3.43-5.68,6.98-9.95,9.76-12.93c3.76-4.02,7.13-7.57,12.7-10.45c3.66-1.89,7-2.84,9.36-3.35
			c0.65-0.01,3.51,0.01,5.75,2.18c1.78,1.73,2.6,4.28,2.28,6.85c-0.2,1.64-0.42,3.27-0.48,4.92c-0.17,4.76-0.6,9.99-1.44,15.59
			c-0.78,5.23-1.81,10.03-2.93,14.35c3.02-7.97,7.77-19.02,14.51-29.66c2.49-3.93,5.36-7.98,10.49-11.09
			c4.05-2.45,7.98-3.39,10.63-3.78c1.19,0.03,5.58,0.3,9.22,3.74c5.16,4.9,4.2,11.87,4.1,12.54c-0.08,1.63-0.59,7.76-5.55,12.78
			c-6.6,6.68-15.5,5.72-16.6,5.59c0.27-0.81,2.37-7.32-1.27-11.63l-0.02-0.02c-1.12-1.33-2.97-1.82-4.59-1.19
			c-0.99,0.38-2.13,0.97-3.25,1.87c-2.04,1.65-3.1,3.58-3.62,4.81c-0.24,0.57-0.5,1.13-0.79,1.67c-3.97,7.34-7.92,15.65-11.5,24.94
			c-7.53,19.48-11.2,37.39-13,52h-25.98c4.54-20.06,8.17-35.22,11.33-47.25c1.37-5.24,3.98-14.91,5.3-28.21
			c0.45-4.51,0.64-8.26,0.72-10.85c-1.64-0.1-2.89,0.16-3.7,0.4c-3.41,1.02-4.48,3.31-8.52,5.14
			C576.58,491.71,575.53,492.02,574.86,492.2z"/>
		<path class="st1" d="M750.01,537.13c-0.52-0.25-2.3,2.05-5.87,6.67c-4.02,5.21-6.23,8.93-10.5,9.86
			c-0.52,0.11-0.95,0.16-1.21,0.18c-0.91-0.06-1.56-0.32-2.03-0.65c-2.64-1.79-2.76-7.35-0.32-13.82l15.99-73.05h-24.6
			c-0.45,2.81-0.91,5.62-1.36,8.44c-0.74-2.36-1.85-4-2.89-5.14c-5.43-5.93-16.53-6.4-27.97-1.61c-5.9,3.82-12.99,9.39-19.61,17.36
			c-16.5,19.86-19.54,41.95-20.25,51.76c-2.16,15.63,2.27,29.36,11.73,34.56c0.32,0.17,0.66,0.35,1.02,0.52
			c3.69,1.73,7.89,1.98,11.85,1c0.74-0.18,1.52-0.41,2.32-0.67c1.9-0.63,6.4-2.35,12.18-7.59c6.39-5.8,9.75-11.75,13.26-18.08
			c1.99-3.59,4.56-8.71,6.95-15.19c-1.29,7.66-2.57,15.33-3.86,22.99c-0.87,7.74,1.71,14.66,6.83,17.6c1.14,0.65,2.9,1.39,5.39,1.53
			c2.07-0.1,5.04-0.46,8.35-1.69c7.79-2.88,12.1-8.52,15.21-12.7C748.13,549.32,751.15,537.7,750.01,537.13z M715.94,488.43
			c-0.94,6.13-2.4,12.96-4.66,20.26c-4.79,15.4-11.54,27.59-17.52,36.48c-0.73,1.34-2.73,4.6-6.77,6.51
			c-2.05,0.98-3.96,1.28-5.28,1.37c-0.97-0.1-2.2-0.4-3.4-1.18c-4.05-2.67-3.7-8.41-3.68-8.78c0.14-15.71,3.35-27.75,5.95-35.2
			c4.19-12.04,9-18.66,10.45-20.57c3.44-4.56,6.9-7.91,9.52-10.17c0.82-0.62,2.6-1.79,5.18-2.17c2.32-0.34,4.19,0.13,5.15,0.44
			c0.79,0.46,3.52,2.18,4.86,5.74C717.02,484.57,716.22,487.53,715.94,488.43z"/>
	</g>
	<text transform="matrix(1 0 0 1 289.4386 605.5272)" class="st1 st2 st3 st4">Quality promised</text>
	<g>
		<path class="st5" d="M612.25,332.41c1.8,1.08,4.15,2.76,6.4,5.32c3.6,4.09,5.12,8.36,5.79,10.84c-2.23-1.56-5.38-4.17-8.16-8.2
			C614.24,337.41,613.01,334.59,612.25,332.41z"/>
		<path class="st0" d="M559.16,359.01c-1.09-2.26-2.91-5.68-5.69-9.48c-4.98-6.82-10.25-11.04-17.06-16.43
			c-2.69-2.13-6.53-5.02-11.37-8.21c-12.57-6.54-23.6-10.35-31.59-12.63c-22.24-6.36-41.15-6.72-59.38-6.95
			c-11.12-0.14-20.4,0.31-26.94,0.77c-0.56-0.09-1.09-0.33-1.54-0.68l-3.3-2.63l-2.97-2.38c-0.66-0.52-1.38-0.93-2.15-1.23
			c-1.13-0.44-2.36-0.63-3.6-0.52l-0.78,0.06c-1.08,0.09-1.88-0.78-1.88-1.74c0-0.32,0.09-0.65,0.29-0.95
			c1.58-2.36-0.88-5.34-3.49-4.23c-13.71,5.83-32.26,15.59-50.93,31.85c-25.84,22.5-40.03,47.1-47.38,62.54
			c3.16-1.69,6.32-3.37,9.48-5.05c2.78-4.31,13.34-19.57,32.85-24.01c5.23-1.19,10.02-1.35,14.05-1.09
			c0.75,0.05,0.81,1.12,0.08,1.28c-2.86,0.6-5.28,1.2-7.18,1.71c-12.1,3.22-14.93,5.68-16.43,8.21c-0.35,0.59-0.61,1.16-0.8,1.67
			c-0.28,0.72,0.28,1.49,1.05,1.47c4.71-0.15,8.5-0.92,11.4-1.78c0.82-0.23,1.57-0.49,2.24-0.73c0.35-0.13,0.7-0.26,1.04-0.39
			c5.96-2.31,8.87-5.06,16.02-7.2c3.37-1,6.38-1.49,8.71-1.73c0.79-0.08,1.29,0.83,0.79,1.45c-2.09,2.57-5.17,5.73-9.5,8.49
			c-3.52,2.25-6.85,3.59-9.48,4.42c11.61,1.44,21.86-2.15,25.9-9.48c0.61-1.12,1.24-2.61,1.61-4.53c0.27-1.4-0.35-2.81-1.55-3.56
			c-3.06-1.9-6.12-3.79-9.18-5.68c-0.18-0.11-6.15-1.09-9.5-1.01c-1.22,0.03-6.83,0.21-14.45,2.55c-8.88,2.72-11.48,5.61-17.93,5.25
			c-1.01-0.06-1.92-0.18-2.72-0.33c-0.88-0.16-1.14-1.23-0.41-1.72c1.75-1.2,3.65-2.39,5.69-3.53c8.88-4.97,17.61-7.51,24.78-8.81
			c2.02-0.37,3.75-1.53,4.76-3.18c1.19-1.96,2.86-4.18,5.22-6.3c0.76-0.68,1.52-1.29,2.26-1.83c0.99-0.71,2.46-0.34,2.9,0.75
			c0.4,1,0.77,2.09,1.06,3.29c1.27,5.25,0.42,9.86-0.54,12.91c0.34-0.03,0.69-0.04,1.06-0.04c7.02,0.02,11.9,4.85,13.27,6.32
			c2.67,1.62,7.17,3.85,12.97,4.17c4.09,0.22,7.37-0.2,8.73-1c7-4.14,17.88-9.26,32-11.38c13.92-2.09,25.65-0.47,33.48,1.37
			c3.55,0.83,7.28,0.55,10.68-0.88c0.95-0.27,1.88-0.54,2.82-0.8c1.03-0.23,1.72-1.18,1.66-2.21c-0.1-1.48-1.62-2.87-3.79-3.16
			c-3.3,0.52-6.11,0.64-8.21,0.63c-4.67-0.03-10.21-0.06-15.79-3.16c-2.09-1.16-3.7-2.48-4.89-3.62c-0.38-0.36-0.39-0.95-0.04-1.35
			c0.32-0.37,0.51-0.84,0.51-1.35c0-0.09-0.01-0.18-0.02-0.27c-0.13-0.95-1.01-1.62-1.97-1.63c-17.44-0.21-34.89-0.42-52.34-0.63
			c-0.35,0-0.63-0.28-0.63-0.63c0-0.35,0.28-0.63,0.63-0.63c16.85-1.47,33.69-2.95,50.54-4.42c-1.07-0.32-3.1-0.88-5.69-1.26
			c-11.1-1.67-17.42,2-22.74-1.9c-0.78-0.57-2.06-1.69-3.16-3.79l54.96,5.69c9.37,1,24.95,3.89,41.69,13.27
			c19.13,10.71,30.54,24.71,36.25,32.92c0.27,0.37,0.52,0.75,0.83,1.09c3.47,3.91,9.3,4.33,12.83,1.36
			C560.33,367.81,561.26,363.02,559.16,359.01z M372.27,322.68c1.49,0,2.7,2.31,2.7,5.15c0,2.84-1.21,5.14-2.7,5.14
			c-1.48,0-2.69-2.3-2.69-5.14C369.58,324.98,370.79,322.68,372.27,322.68z M392.73,340.12c0.72-0.37,1.37-0.77,1.96-1.17
			c1.86-1.27,3.99-2.1,6.23-2.3c18.16-1.67,25.45-1.91,28.3-1.69c0.71,0.06,3.49,0.32,6.98-0.45c1.01-0.22,1.9-0.49,2.64-0.75
			c0.79-0.27,1.57,0.35,1.57,1.12c0,0.11-0.02,0.22-0.05,0.33c-0.21,0.73-0.62,1.24-0.96,1.57c-0.25,0.25-0.6,0.37-0.95,0.32
			c-0.9-0.11-2-0.16-3.23-0.02c-1.67,0.2-3.09,0.68-4.21,1.21c-1.45,0.68-3.08,0.93-4.68,0.79c-6.15-0.57-13.49-0.56-21.6,0.86
			c-2,0.35-3.92,0.76-5.74,1.23c-1.47,0.37-2.86,1.04-4.08,1.93c-2.67,1.95-5.33,3.9-7.99,5.85c-1.28,0.94-3.01,1.04-4.38,0.23
			c-3.03-1.8-6.47-4.3-9.77-7.78c-0.93-0.98-1.78-1.96-2.54-2.91c-0.37-0.46,0.15-1.09,0.67-0.83c2.84,1.43,6.23,2.78,10.14,3.73
			c1.48,0.35,2.91,0.63,4.26,0.82c0.09,0.01,0.17,0.02,0.26,0.01C387.27,342.06,389.9,341.6,392.73,340.12z"/>
		<path class="st0" d="M328.95,372.23c0.3,0.42,0.68,1.08,0.85,1.95c0,0.02,0.01,0.04,0.01,0.06c0.42,2.33-1.35,4.47-3.71,4.67
			c-0.9,0.07-1.94,0.04-3.06-0.21c-0.41-0.09-0.79-0.2-1.15-0.33c-2.11-0.73-2.94-3.34-1.53-5.07c0.01-0.01,0.02-0.03,0.03-0.04
			c1.61-1.95,4.55-2.65,7.41-1.75c3.26-0.83,17.58-9.85,20.84-10.69L328.95,372.23z"/>
		<g>
			<path class="st0" d="M386.69,276.88c0.1-0.72-0.39-1.39-1.11-1.49c-2.79-0.38-5.18,0.92-5.84,2.77c-0.61,1.7,0.41,3.43,0.63,3.79
				c0.38,0.52,0.99,1.24,1.9,1.9c0.97,0.7,1.89,1.07,2.53,1.26c1.69,0.3,4.41,1.06,6.95,3.16c0.03,0.03,0.06,0.05,0.09,0.08
				c1.17,0.98,2.73,1.29,4.19,0.84c1.68-0.52,3.95-0.88,6.46-0.28c0.33,0.08,0.65,0.17,0.96,0.27c1.1,0.36,1.35,1.8,0.44,2.51
				c-0.43,0.34-0.9,0.68-1.4,1.01c-1.24,0.83-2.45,1.45-3.53,1.93c-0.94,0.41-1.62,1.27-1.76,2.29l-0.07,0.48
				c-0.21,1.44,0.19,2.9,1.1,4.04c0.7,0.87,1.75,1.37,2.86,1.36l78.37-0.6c1.74-0.01,3.47,0.28,5.11,0.87
				c6.07,0.97,12.91,2.47,20.27,4.8c11.52,3.65,21.03,8.31,28.43,12.63c0.91,0.69,3.68,2.61,7.58,2.53
				c2.27-0.05,4.04-0.75,5.05-1.26c-0.55-0.3-1.42-0.76-2.53-1.26c-2.78-1.26-4.07-1.42-6.32-2.53c-0.77-0.38-1.88-0.98-3.16-1.9
				c0.1-0.46,0.18-1.14,0-1.9c-0.56-2.37-3.13-3.38-5.69-5.05c-1.2-0.78-2.7-1.91-4.31-3.55c-0.45-0.46-0.02-1.24,0.61-1.09
				c2.38,0.56,5.15,1.41,8.12,2.74c4.04,1.8,5.32,2.61,7.6,4.39c-10.48-8.83-31.38-24.13-64.46-29.03
				c-16.75-2.48-31.19-1.22-41.69,0.63c-1.29-1.16-4.85-4.06-10.11-4.42c-2.33-0.16-4.3,0.22-5.69,0.63
				c-1.23-1.63-4.11-4.9-8.84-6.32c-6.65-1.98-14.24,0.52-19.58,6.32c4.05-0.63,7.1,0.71,7.58,2.53c0.01,0.03,0.02,0.07,0.03,0.11
				c0.24,1.21-1,2.2-2.15,1.75c-1.53-0.6-3.6-1.18-6.09-1.23c-1.49-0.03-2.82,0.13-3.92,0.36c-0.61,0.13-1.23-0.15-1.56-0.69
				c-0.06-0.1-0.13-0.2-0.21-0.3c-0.22-0.28-0.44-0.48-0.63-0.63c0.49-0.24,3.39-1.68,3.79-4.42L386.69,276.88z"/>
			<path class="st5" d="M529.42,297.14c0.27,0.42,0.72,1.09,1.31,1.86c2.02,2.62,3.83,3.97,8.21,7.58c0.84,0.69,2.16,1.78,3.79,3.16
				c0.52,0.26,0.77,0.81,0.63,1.26c-0.13,0.43-0.57,0.61-0.63,0.63c-0.84,0-1.68,0-2.53,0l2.46,1.23c0.89,0.44,1.72,0.97,2.5,1.58
				c7.32,5.78,15.37,12.98,23.47,21.83c11.52,12.6,19.87,24.99,25.87,35.47c0.76,1.33,1.76,2.52,3.03,3.39
				c3.17,2.16,6.8,1.96,8.38,0.31c1.49-1.55,1.48-4.71,0-7.58c-6.53-12.67-16.97-25.86-18.95-27.8
				c-10.7-10.47-20.06-19.65-24.82-24.31c-4.16-3.08-8.91-6.29-14.26-9.42C541.3,302.5,535.06,299.5,529.42,297.14z"/>
		</g>
		<path class="st0" d="M516.2,269.31C516.2,269.31,516.2,269.31,516.2,269.31c4.63,0.88,9.93,1.6,15.79,1.89
			c4.08,0.2,7.88,0.17,11.37,0c0,0,0,0,0,0c0.4-1.99,0.8-3.98,1.19-5.97c0.13-0.26,0.25-0.51,0.38-0.77
			c0.3-0.34,0.82-0.76,1.59-0.84c0.01,0,0.02,0,0.03,0c0.96-0.09,1.75,0.8,1.59,1.75c-0.15,0.91-0.18,2.13,0.3,3.4
			c0.14,0.36,0.3,0.67,0.47,0.95c0.14,0.03,0.2,0.04,0.34,0.07c0.41-0.3,0.84-0.65,1.27-1.06c1.15-1.13,1.89-2.37,2.36-3.45
			c0.61-1.4,2.37-1.98,3.62-1.11c0.28,0.2,0.54,0.44,0.76,0.71c0.86,1.1,0.77,2.37,0.68,2.91c-0.06,0.14-0.12,0.28-0.19,0.42
			c-1.26,1.61-2.51,3.23-3.77,4.84c-0.25,0.29-0.5,0.57-0.75,0.86c-0.55,0.5-0.84,1.23-0.76,1.96c0.11,1.01,0.87,1.56,0.99,1.65
			c0,0,0,0,0,0c0.33,0.18,0.82,0.4,1.46,0.51c0.12,0.02,0.24,0.08,0.36,0.09c1.63,0.43,3.27,1.25,4.91,1.89
			c12.7,6.49,27.11,14.64,41.92,26.58c8.46,6.82,15.79,13.68,22.11,20.22c0,0,0,0,0,0c13.13,18.19,26.27,37.76,39.17,58.75
			c4.62,7.53,9.07,15,13.33,22.39c0.58,1.01,1,2.12,1.17,3.27c0.16,1.16,0.1,2.43-0.6,3.4c-1.26,1.74-4.48,2.35-8.31,1.17
			c-3.13-0.97-5.81-3.01-7.82-5.6c-0.96-1.24-1.94-2.71-2.82-4.42c-1.82-3.54-2.61-6.9-2.94-9.53c-0.29-2.35-0.99-4.63-2.08-6.74
			c-3.63-7-7.63-14.24-12.04-21.64c-7.95-13.36-16.08-25.34-24-36.01c0,0,0,0,0,0l-5.68,1.89c0,0,0,0,0,0
			c-7.06-6.92-13.32-11.91-17.69-15.16c-3.47-2.58-7.77-5.57-27.8-17.69c-4.85-2.94-9.09-5.48-12.48-7.5
			c-2.21-1.04-4.41-2.08-6.62-3.12c-4.53-1.63-8.31-3.22-11.23-4.54c-10.81-4.86-13.85-7.72-15.79-10.11
			C518.02,273.21,516.86,270.87,516.2,269.31z"/>
		<path class="st0" d="M684.24,352.7c6.55,7.34,13.91,16.77,20.85,28.43c5.21,8.76,9.18,17.09,12.21,24.52
			c0.95,2.34,0.2,5.1-1.92,6.46c-0.44,0.28-0.92,0.49-1.45,0.6c-3.23,0.65-7.73-2.77-9.7-9.2c-0.44-1.45-1.03-2.84-1.69-4.21
			l-21.46-44.71L684.24,352.7z"/>
		<path class="st0" d="M428.72,253.83c0.84,0.27,1.76,0.16,2.5-0.31c1.58-1,3.7-2.08,6.32-2.85c2.03-0.59,3.87-0.85,5.37-0.95
			c0.98-0.28,1.93,0.2,2.21,0.95c0.29,0.78-0.28,1.53-0.32,1.58c-0.18,0.4-0.95,2.01-2.84,2.84c-0.79,0.34-1.54,0.45-2.15,0.46
			c-0.75,0.01-1.43,0.44-1.7,1.14c-0.43,1.11-1.33,2.64-3.1,3.46c-1.84,0.85-3.56,0.46-4.11,0.32c-0.45-0.14-1.94-0.68-2.84-2.21
			c0-0.01-0.01-0.01-0.01-0.02c-0.6-1.03-1.72-1.63-2.9-1.47c-0.79,0.11-1.51,0.18-2.15,0.23c-3.32,0.23-6.09,0.42-7.58-1.26
			c-0.63-0.71-0.86-1.57-0.95-2.21c0.09-0.57,0.33-1.42,0.95-2.21c1.72-2.2,4.78-1.92,5.05-1.9c1.16,0.1,2,0.4,2.53,0.63
			c2.49,1.09,3.13,2.96,5.69,3.79L428.72,253.83z"/>
		<circle class="st0" cx="494.72" cy="345.75" r="3.47"/>
		<circle class="st0" cx="565.16" cy="344.8" r="4.42"/>
		
			<ellipse transform="matrix(0.8979 -0.4401 0.4401 0.8979 -103.8342 287.955)" class="st0" cx="568.95" cy="367.86" rx="3.79" ry="4.74"/>
		
			<ellipse transform="matrix(0.5881 -0.8088 0.8088 0.5881 -77.3999 639.2447)" class="st0" cx="588.89" cy="395.61" rx="7.17" ry="9.54"/>
		
			<ellipse transform="matrix(0.5881 -0.8088 0.8088 0.5881 -70.8227 672.746)" class="st0" cx="625.07" cy="405.9" rx="6.75" ry="8.27"/>
		<circle class="st0" cx="695.3" cy="345.43" r="3.16"/>
		<path class="st5" d="M588.85,287.63c3.58,0.69,8.64,1.83,14.53,3.79c7.42,2.47,18.16,6.9,33.48,17.69
			c21.49,15.13,38.27,33.09,47.38,43.59c-0.6,0.52-1.25,1.15-1.9,1.9c-0.01,0.01-0.02,0.03-0.03,0.04
			c-1.68,1.96-1.96,4.76-0.79,7.05c2.81,5.48,5.62,11.12,8.4,16.91c3.47,7.21,6.73,14.29,9.8,21.23c0.99,2.25,1.04,4.84-0.05,7.04
			c-0.36,0.73-0.86,1.44-1.53,2.05c-1.99,1.8-5.2,2.4-8.59,1.55c-3.83-0.95-6.98-3.67-8.73-7.21c-7.91-16.02-15.84-29.15-22.48-39.2
			c-19.56-29.62-38.31-48.47-42.96-53.07C605.16,300.89,595.86,293.11,588.85,287.63z"/>
		<path class="st0" d="M472.61,268.67c0.09-1.41,1.23-2.5,2.53-2.53c1.12-0.02,2.17,0.75,2.53,1.9c0.25,0.53,0.65,1.21,1.26,1.9
			c0.91,1.01,1.88,1.59,2.53,1.9c0.67,0.26,1.52,0.51,2.53,0.63c2.22,0.27,4.03-0.25,5.05-0.63c6.18,1.09,13.78,2.96,22.11,6.32
			c9.23,3.72,16.61,8.14,22.11,12c6.63,4.01,13.57,8.02,20.85,12c9.76,5.34,19.26,10.17,28.43,14.53
			c16.94,10.44,40.29,28.39,58.12,57.49c4.34,7.08,7.86,14.02,10.72,20.6c0.68,1.57,1.06,3.27,1.03,4.98
			c-0.03,1.63-0.39,3.47-1.65,4.74c-2.11,2.14-6.54,2.48-11.08,0.22c-2.79-1.39-5.09-3.6-6.76-6.24
			c-3.53-5.57-7.06-11.15-10.59-16.72c-5.78-10.55-13.75-23.06-24.64-36.01c-11.7-13.92-23.51-24.47-33.48-32.22l-2.53,1.9
			c-11.63-7.53-25.53-15.44-41.69-22.74c-13.09-5.91-25.45-10.43-36.64-13.9h-3.79c-0.91-1.9-2.14-4.06-3.79-6.32
			C474.7,271.01,473.63,269.76,472.61,268.67z"/>
	</g>
</g>
</svg>
